# xmcd
#
# Track frame offsets:
#	150
#	13522
#	27241
#	38281
#	49990
#	61685
#	73558
#	83347
#	96284
#	108138
#	120364
#
# Disc length: 1814 seconds
#
# Revision: 0
# Processed by: cddbd v1.5.1PL0 Copyright (c) Steve Scherf et al.
# Submitted via: audiograbber 1.83.01
#
DISCID=7307140b
DTITLE=Charley Pride - Country Music Legend - Live In Concert
DYEAR=1900
DGENRE=Country
TTITLE0=Kaw Liga
TTITLE1=I'm So Afraid Of Losing You
TTITLE2=Oklahoma Morning
TTITLE3=It's Going To Take A Little Bit Longer
TTITLE4=Happiness Of Having You
TTITLE5=My Eyes Can Only See As Far As You
TTITLE6=Kiss An Angel Good Morning
TTITLE7=Help Me Make It Through The Night
TTITLE8=Louisiana Man
TTITLE9=There Goes My Everything
TTITLE10=Me And Bobby McGee
EXTD=
EXTT0=
EXTT1=
EXTT2=
EXTT3=
EXTT4=
EXTT5=
EXTT6=
EXTT7=
EXTT8=
EXTT9=
EXTT10=
PLAYORDER=
